<svg fill="none" xmlns="http://www.w3.org/2000/svg" viewBox="0 0 126 103"><path d="M63.5 3.5a48.28 48.28 0 110 96.56 48.28 48.28 0 010-96.56z" fill="#101010" fill-opacity=".01" stroke="#fff" stroke-width="3"/><path fill-rule="evenodd" clip-rule="evenodd" d="M63.5 13.72a38.06 38.06 0 110 76.12 38.06 38.06 0 010-76.12z" fill="#EC2734"/><path fill-rule="evenodd" clip-rule="evenodd" d="M63.5 13.72a38.06 38.06 0 110 76.12 38.06 38.06 0 010-76.12z" fill="url(#paint0_linear)"/><g clip-path="url(#clip0)"><g clip-path="url(#clip1)"><path d="M102.72 28.62H24.25a23.75 23.75 0 100 47.5h78.47a23.75 23.75 0 000-47.5z" fill="#101010" stroke="#FF702A" stroke-width="3"/></g><path d="M36.01 43.6v23.18h-5.64v-9.67h-8.79v9.67h-5.6V43.6h5.6v8.98h8.8V43.6H36zm12.42 4.65c1.81 0 3.43.39 4.85 1.15a8.06 8.06 0 013.38 3.25 9.7 9.7 0 011.24 4.98 9.7 9.7 0 01-1.24 4.99 8.27 8.27 0 01-3.38 3.28A10.32 10.32 0 0148.43 67c-1.82 0-3.45-.37-4.9-1.11a8.49 8.49 0 01-3.4-3.28 9.9 9.9 0 01-1.22-4.99c0-1.9.4-3.56 1.22-4.98a8.27 8.27 0 013.4-3.25 10.27 10.27 0 014.9-1.15zm0 4.86a3.6 3.6 0 00-2.73 1.18c-.72.76-1.08 1.88-1.08 3.34 0 1.47.36 2.58 1.08 3.35a3.65 3.65 0 002.73 1.15c1.07 0 1.96-.39 2.68-1.15.73-.77 1.09-1.88 1.09-3.35 0-1.46-.36-2.58-1.09-3.34a3.5 3.5 0 00-2.68-1.18zm22.74 8.85v4.82h-2.52c-2.14 0-3.82-.52-5.02-1.57-1.18-1.07-1.77-2.83-1.77-5.28V53.2H59.4v-4.73h2.46V44h5.6v4.5h3.68v4.72h-3.67v6.82c0 .72.14 1.22.42 1.5.31.29.81.43 1.51.43h1.77zm13.52 0v4.82h-2.53c-2.14 0-3.81-.52-5.01-1.57-1.18-1.07-1.77-2.83-1.77-5.28V53.2h-2.46v-4.73h2.46V44h5.6v4.5h3.68v4.72h-3.68v6.82c0 .72.15 1.22.43 1.5.3.29.8.43 1.5.43h1.78zm20.53-4.82c0 .46-.05.96-.16 1.51h-12.7c.07 1.38.42 2.37 1.06 2.98.63.6 1.44.89 2.42.89.83 0 1.52-.2 2.07-.62.55-.42.9-.95 1.08-1.61h5.94a7.88 7.88 0 01-1.58 3.48c-.8 1-1.83 1.8-3.08 2.39a9.92 9.92 0 01-4.17.85c-1.79 0-3.38-.37-4.78-1.11a8.22 8.22 0 01-3.25-3.28 10.12 10.12 0 01-1.18-4.99c0-1.92.38-3.58 1.15-4.98a7.95 7.95 0 013.28-3.25c1.4-.76 3-1.15 4.78-1.15 1.82 0 3.42.38 4.8 1.12a7.74 7.74 0 013.17 3.15 9.13 9.13 0 011.15 4.62zm-5.67-.85c.02-1.2-.3-2.1-.99-2.69a3.47 3.47 0 00-2.46-.92c-1.02 0-1.88.3-2.55.92a3.84 3.84 0 00-1.15 2.69h7.15zm13.42 4.88v5.61h-5.8v-5.6h5.8z" fill="#FF702A"/></g><defs><clipPath id="clip0"><path fill="#fff" transform="translate(0 29)" d="M0 0h126v47H0z"/></clipPath><clipPath id="clip1"><path fill="#fff" transform="translate(0 29)" d="M0 0h126v47H0z"/></clipPath><linearGradient id="paint0_linear" x1="24" y1="91" x2="103" y2="91" gradientUnits="userSpaceOnUse"><stop stop-color="#FF702A"/><stop offset="1" stop-color="#CC0E15"/></linearGradient></defs></svg>