<svg xmlns="http://www.w3.org/2000/svg" viewBox="0 0 492 492"><path d="M464.34 207.42l.77.17H135.9l103.5-103.73a26.93 26.93 0 007.84-19.12c0-7.2-2.78-14.01-7.85-19.09l-16.1-16.11a26.7 26.7 0 00-19-7.87 26.7 26.7 0 00-19.02 7.85L7.84 226.92A26.66 26.66 0 000 245.96a26.66 26.66 0 007.84 19.1l177.42 177.41a26.7 26.7 0 0019.01 7.85c7.2 0 13.95-2.8 19.01-7.85l16.1-16.11a26.65 26.65 0 007.85-19c0-7.2-2.78-13.6-7.85-18.66l-104.66-104.3h330c14.82 0 27.28-12.78 27.28-27.6V234c0-14.81-12.83-26.6-27.66-26.6z"/></svg>