<?xml version="1.0" standalone="no"?>
<!DOCTYPE svg PUBLIC "-//W3C//DTD SVG 20010904//EN"
 "http://www.w3.org/TR/2001/REC-SVG-20010904/DTD/svg10.dtd">
<svg version="1.0" xmlns="http://www.w3.org/2000/svg"
 width="1008.000000pt" height="1008.000000pt" viewBox="0 0 1008.000000 1008.000000"
 preserveAspectRatio="xMidYMid meet">
<metadata>
Created by potrace 1.14, written by Peter Selinger 2001-2017
</metadata>
<g transform="translate(0.000000,1008.000000) scale(0.100000,-0.100000)"
fill="#000000" stroke="none">
<path d="M4825 8050 c-483 -42 -980 -211 -1380 -469 -265 -171 -535 -412 -723
-646 l-72 -90 192 -7 c106 -4 1203 -7 2437 -5 l2244 2 -64 80 c-387 487 -917
843 -1526 1024 -115 34 -298 73 -453 96 -125 18 -512 27 -655 15z"/>
<path d="M1723 6744 c-327 -39 -644 -173 -898 -377 -656 -528 -857 -1424 -490
-2182 92 -189 214 -355 372 -505 295 -282 643 -442 1062 -490 118 -13 6504
-13 6622 0 812 93 1433 667 1586 1465 47 246 32 555 -38 800 -176 612 -660
1086 -1273 1245 -240 63 -55 60 -3601 59 -2649 -1 -3250 -4 -3342 -15z m-3
-1439 l0 -355 360 0 360 0 0 355 0 355 215 0 215 0 0 -920 0 -920 -215 0 -215
0 -2 388 -3 387 -357 3 -358 2 0 -390 0 -390 -215 0 -215 0 0 920 0 920 215 0
215 0 0 -355z m3670 145 l0 -180 145 0 145 0 0 -180 0 -180 -145 0 -145 0 0
-305 c0 -337 4 -361 59 -389 21 -12 59 -16 131 -16 l100 0 0 -192 0 -191 -147
7 c-171 8 -255 23 -335 61 -121 57 -192 153 -222 297 -13 61 -16 145 -16 403
l0 325 -100 0 -100 0 0 185 0 185 100 0 100 0 0 175 0 175 215 0 215 0 0 -180z
m1080 0 l0 -180 150 0 150 0 0 -180 0 -180 -150 0 -150 0 0 -300 c0 -410 0
-410 200 -410 l100 0 0 -192 0 -191 -149 6 c-183 8 -273 26 -363 74 -78 41
-126 91 -164 172 -45 94 -53 176 -54 524 l0 317 -100 0 -100 0 0 185 0 185
100 0 100 0 0 175 0 175 215 0 215 0 0 -180z m-2360 -190 c259 -74 440 -268
495 -531 19 -90 19 -268 0 -358 -48 -228 -187 -406 -388 -495 -31 -13 -95 -34
-144 -46 -76 -20 -105 -22 -228 -17 -157 6 -233 23 -350 81 -254 126 -392 396
-370 720 9 126 25 191 76 294 93 191 287 330 517 372 84 16 308 4 392 -20z
m3825 -4 c119 -38 191 -81 276 -165 62 -62 85 -94 122 -171 64 -133 91 -289
71 -412 l-7 -38 -509 0 -510 0 7 -46 c25 -172 103 -255 252 -270 116 -12 243
53 275 142 l12 34 228 0 c184 0 228 -3 228 -13 0 -27 -40 -130 -72 -185 -42
-74 -147 -177 -228 -225 -109 -63 -205 -89 -358 -94 -113 -5 -147 -2 -227 17
-270 62 -446 241 -515 525 -19 77 -22 108 -17 225 6 150 26 239 79 343 80 159
216 272 397 332 85 28 146 34 286 30 105 -3 146 -8 210 -29z m1095 -1216 l0
-220 -225 0 -225 0 0 220 0 220 225 0 225 0 0 -220z"/>
<path d="M3762 4899 c-72 -28 -144 -102 -173 -176 -32 -84 -32 -262 1 -347 27
-70 90 -138 158 -169 59 -28 187 -29 245 -3 46 20 110 77 138 122 61 99 66
327 10 433 -70 130 -243 194 -379 140z"/>
<path d="M7566 4930 c-92 -36 -163 -128 -173 -225 l-6 -55 292 0 291 0 0 36
c0 102 -61 197 -155 240 -65 31 -176 32 -249 4z"/>
<path d="M2772 3081 l-32 -6 94 -106 c340 -383 840 -700 1351 -857 345 -106
588 -138 985 -129 268 6 426 26 664 87 413 105 807 301 1146 570 104 82 418
388 439 429 l12 21 -2313 -1 c-1272 -1 -2328 -4 -2346 -8z"/>
</g>
</svg>
