<svg xmlns="http://www.w3.org/2000/svg">
   <symbol id="clock" viewBox="0 0 15 14">
      <g>
         <path d="M7.5.18A6.6 6.6 0 00.95 6.6 6.56 6.56 0 107.5.18zM7.54 12a5.19 5.19 0 01-5.3-5.24 5.2 5.2 0 012.6-4.54 5.17 5.17 0 015.3 0 5.23 5.23 0 01.07 9.03c-.82.49-1.7.74-2.67.75zm.41-9.18h-.88a.1.1 0 00-.11.1v3.16c0 .03-.01.05-.04.07a.1.1 0 01-.08.03H4.83a.1.1 0 00-.1.1v.9a.1.1 0 00.1.11h3.12a.1.1 0 00.1-.1V2.92a.1.1 0 00-.1-.1z"/>
      </g>
   </symbol>

   <symbol id="play" viewBox="0 0 22 25">
      <g>
      <path fill-rule="evenodd" clip-rule="evenodd" d="M21.5 12.17L.5 24.29V.04l21 12.13z" fill="#fff"/>
      </g>
   </symbol>

   <symbol id="stick" viewBox="0 0 105 9">
      <g>
         <path fill-rule="evenodd" clip-rule="evenodd" d="M2 2h70v6H2V2zM82 2h6v6h-6V2zM98 2h6v6h-6V2z" fill="#FF702A"/>
      </g>
   </symbol>

   <symbol id="fc" viewBox="0 0 30 30">
      <g>
         <path fill="#115DD6" d="M24 4H6a2 2 0 00-2 2v18c0 1.1.9 2 2 2h10v-9h-3v-3h3v-1.61C16 9.34 17.49 8 20.02 8c1.22 0 1.86.09 2.16.13V11h-1.73c-1.07 0-1.45.57-1.45 1.72V14h3.15l-.42 3H19v9h5a2 2 0 002-2V6a2 2 0 00-2-2z"/>
      </g>
   </symbol>

   <symbol id="pin" viewBox="0 0 511.98 511.98">
      <g>
         <path fill="#EC2734" d="M262.95 0C122.63 0 48 89.92 48 187.97c0 45.47 25.41 102.17 66.08 120.16 6.18 2.78 9.54 1.6 10.92-4.13 1.21-4.35 6.56-25.31 9.15-35.2.8-3.17.38-5.92-2.18-8.9-13.5-15.61-24.22-44.06-24.22-70.75 0-68.38 54.37-134.78 146.88-134.78 80 0 135.97 51.97 135.97 126.3 0 84-44.45 142.11-102.21 142.11-31.97 0-55.78-25.08-48.23-56.12 9.12-36.96 27.01-76.7 27.01-103.36 0-23.9-13.5-43.68-41.09-43.68-32.54 0-58.94 32.22-58.94 75.48 0 27.5 9.73 46.05 9.73 46.05s-32.2 130.05-38.18 154.34c-10.11 41.12 1.38 107.71 2.37 113.44.6 3.17 4.16 4.16 6.14 1.57 3.17-4.16 42.08-59.68 53-99.81 3.96-14.63 20.25-73.92 20.25-73.92 10.72 19.36 41.67 35.58 74.63 35.58 98.04 0 168.9-86.17 168.9-193.12C463.61 76.7 375.87 0 262.94 0z"/>
      </g>
   </symbol>

    <symbol id="drb" viewBox="0 0 32 32">
      <g>
         <path fill="#EA4C89" d="M16 4C9.38 4 4 9.38 4 16s5.38 12 12 12 12-5.38 12-12S22.62 4 16 4zm0 2c2.54 0 4.83.95 6.6 2.5-.2.26-.45.58-.85.97-.86.83-2.22 1.82-4.31 2.6a47.69 47.69 0 00-3.72-5.82C14.45 6.08 15.22 6 16 6zm-4.25.94a46.68 46.68 0 013.75 5.72 38.35 38.35 0 01-9.28 1.21 9.98 9.98 0 015.53-6.93zm12.22 3.03A9.99 9.99 0 0126 15.75c-.9-.2-2.2-.4-3.9-.4-.9-.01-1.9.05-2.98.18-.25-.57-.51-1.12-.78-1.65a14 14 0 004.79-2.97c.34-.34.6-.65.84-.94zm-7.56 4.5c.23.46.46.94.68 1.44-4.27 1.18-7.34 4.8-8.65 6.62A9.96 9.96 0 016 16v-.13c1.35.02 5.65-.07 10.4-1.4zm5.68 2.84c1.79 0 3.02.25 3.75.44a9.93 9.93 0 01-4.09 6.44c-.4-2.4-1.05-4.67-1.84-6.75.79-.08 1.53-.13 2.18-.13zm-4.21.47c.9 2.28 1.65 4.79 2.03 7.44a10.06 10.06 0 01-10-1.28c1.02-1.4 4.04-5.15 7.96-6.16z"/>
      </g>
   </symbol>

   <symbol id="tw" viewBox="0 0 26 26">
      <g>
         <path fill="#1DA1F2" d="M25.86 5.57c-.95.42-1.96.7-3.02.83a5.28 5.28 0 002.3-2.9c-1 .6-2.13 1.04-3.33 1.27a5.24 5.24 0 00-8.94 4.79A14.9 14.9 0 012.05 4.07a5.23 5.23 0 001.62 7.01 5.2 5.2 0 01-2.38-.65v.06c0 2.55 1.81 4.67 4.21 5.15a5.2 5.2 0 01-2.37.09 5.25 5.25 0 004.9 3.64 10.5 10.5 0 01-7.76 2.18 14.86 14.86 0 008.04 2.36c9.66 0 14.94-8 14.94-14.94 0-.23 0-.45-.02-.68a10.5 10.5 0 002.63-2.72"/>
      </g>
   </symbol>

   <symbol id="phone" viewBox="0 0 58 58">
      <g fill="#FF702A" fill-rule="nonzero">
         <path d="M24.02 33.98c-5.54-5.53-6.79-11.07-7.07-13.29-.08-.61.13-1.23.57-1.66L22 14.55a2 2 0 00.28-2.47L15.15 1a2 2 0 00-2.6-.73L1.12 5.67A1.99 1.99 0 000 7.64c.6 5.7 3.08 19.71 16.85 33.48S44.64 57.4 50.34 58c.83.08 1.62-.36 2-1.1l5.38-11.45a2 2 0 00-.72-2.59l-11.08-7.13a2 2 0 00-2.47.28l-4.48 4.48c-.43.44-1.05.65-1.66.57-2.22-.28-7.76-1.53-13.3-7.07z"/><path d="M46 31a2 2 0 01-2-2c0-8.28-6.72-15-15-15a2 2 0 110-4 19.02 19.02 0 0119 19 2 2 0 01-2 2z"/>
         <path d="M56 31a2 2 0 01-2-2A25.03 25.03 0 0029 4a2 2 0 110-4c16 .02 28.98 13 29 29a2 2 0 01-2 2z"/>
      </g>
   </symbol>

   <symbol id="mail" viewBox="0 0 512 512">
      <g>
         <path fill="#FF702A" d="M339.4 258.62L512 367.74V144.9zM0 144.9v222.84l172.6-109.12zM480 80H32C16.03 80 3.36 91.9.96 107.23L256 275.26l255.04-168.03C508.64 91.9 495.97 80 480 80zM310.08 277.95l-45.28 29.83a15.98 15.98 0 01-8.8 2.62c-3.07 0-6.11-.86-8.8-2.62l-45.28-29.86L1.02 404.99C3.5 420.2 16.1 432 32 432h448c15.9 0 28.51-11.8 30.98-27l-200.9-127.05z"/>
      </g>
   </symbol>

   <symbol id="point" viewBox="0 0 97.71 97.71">
      <g>
         <path fill="#FF702A" d="M48.85 0a36.01 36.01 0 00-35.97 35.97c0 5.18 1.06 10.12 3.15 14.69 9 19.68 26.24 40.46 31.3 46.36a2 2 0 003.04 0c5.07-5.9 22.32-26.68 31.31-46.36a35.07 35.07 0 003.15-14.69A36.02 36.02 0 0048.85 0zm0 54.66a18.7 18.7 0 01-18.68-18.69c0-10.3 8.38-18.68 18.68-18.68s18.7 8.38 18.7 18.68a18.7 18.7 0 01-18.7 18.69z"/>
      </g>
   </symbol>
</svg>