<svg xmlns="http://www.w3.org/2000/svg" viewBox="0 0 512 512" fill="#FF702A"><path d="M346 0a10 10 0 00-10 10v46a10 10 0 0020 0V10a10 10 0 00-10-10zM116 312a10 10 0 100 20 10 10 0 000-20z"/><path d="M486 292c0-22.06-17.94-40-40-40h-74.65c11.55-29.6 16.23-64.45 15.33-95.46-.17-5.92-.4-9.35-.7-11.5A40.06 40.06 0 00346 106c-22.06 0-40 17.94-40 40v10c0 63.25-81.21 98.78-142.5 114.02A30.04 30.04 0 00136 252H36a10 10 0 00-10 10v240a10 10 0 0010 10h100c12.2 0 22.72-7.33 27.4-17.8 5.08 1.3 9.79 2.52 14.14 3.66 34.91 9.12 54.14 14.14 100.92 14.14H386c22.06 0 40-17.94 40-40 0-8.22-2.5-15.87-6.77-22.24A40.01 40.01 0 00446 412c0-8.2-2.44-15.87-6.7-22.26a40.02 40.02 0 0019.93-59.98A40.01 40.01 0 00486 292zM146 482c0 5.51-4.49 10-10 10H46V272h90c5.51 0 10 4.49 10 10v200zm300-170h-50a10 10 0 000 20h30a20 20 0 110 40h-50a10 10 0 000 20h30c10.9 0 20 8.7 20 20a20 20 0 01-20 20h-50a10 10 0 000 20h30c11.03 0 20 8.97 20 20s-8.97 20-20 20H278.46c-44.2 0-61.47-4.5-95.87-13.5-5.04-1.3-10.57-2.75-16.59-4.29V290.02c72.37-17.23 160-59.3 160-134.02v-10c0-11.03 8.97-20 20-20 11 0 19.98 8.96 20 19.97v.03c0 4.35 5.42 57.68-16.33 106H316a10 10 0 000 20h130a20 20 0 110 40z"/><path d="M116 352a10 10 0 00-10 10v80a10 10 0 0020 0v-80a10 10 0 00-10-10zm150-226h-40a10 10 0 000 20h40a10 10 0 000-20zm200 0h-40a10 10 0 000 20h40a10 10 0 000-20zm-28.08-81.92a10 10 0 00-14.14 0L395.5 72.36a10 10 0 0014.14 14.14l28.28-28.28a10 10 0 000-14.14zM296.5 72.36l-28.28-28.28a10 10 0 00-14.14 14.14l28.28 28.28a10 10 0 0014.14-14.14z"/></svg>