<svg version="1.0" xmlns="http://www.w3.org/2000/svg" width="1344" height="1344" viewBox="0 0 1008 1008"><path d="M482.5 203c-48.3 4.2-98 21.1-138 46.9-26.5 17.1-53.5 41.2-72.3 64.6l-7.2 9 19.2.7c10.6.4 120.3.7 243.7.5l224.4-.2-6.4-8c-38.7-48.7-91.7-84.3-152.6-102.4-11.5-3.4-29.8-7.3-45.3-9.6-12.5-1.8-51.2-2.7-65.5-1.5zM172.3 333.6c-32.7 3.9-64.4 17.3-89.8 37.7-65.6 52.8-85.7 142.4-49 218.2 9.2 18.9 21.4 35.5 37.2 50.5 29.5 28.2 64.3 44.2 106.2 49 11.8 1.3 650.4 1.3 662.2 0 81.2-9.3 143.3-66.7 158.6-146.5 4.7-24.6 3.2-55.5-3.8-80-17.6-61.2-66-108.6-127.3-124.5-24-6.3-5.5-6-360.1-5.9-264.9.1-325 .4-334.2 1.5zm-.3 143.9V513h72v-71h43v184h-43l-.2-38.8-.3-38.7-35.7-.3-35.8-.2v78h-43V442h43v35.5zM539 463v18h29v36h-29v30.5c0 33.7.4 36.1 5.9 38.9 2.1 1.2 5.9 1.6 13.1 1.6h10v38.3l-14.7-.7c-17.1-.8-25.5-2.3-33.5-6.1-12.1-5.7-19.2-15.3-22.2-29.7-1.3-6.1-1.6-14.5-1.6-40.3V517h-20v-37h20v-35h43v18zm108 0v18h30v36h-30v30c0 41 0 41 20 41h10v38.3l-14.9-.6c-18.3-.8-27.3-2.6-36.3-7.4-7.8-4.1-12.6-9.1-16.4-17.2-4.5-9.4-5.3-17.6-5.4-52.4V517h-20v-37h20v-35h43v18zm-236 19c25.9 7.4 44 26.8 49.5 53.1 1.9 9 1.9 26.8 0 35.8-4.8 22.8-18.7 40.6-38.8 49.5-3.1 1.3-9.5 3.4-14.4 4.6-7.6 2-10.5 2.2-22.8 1.7-15.7-.6-23.3-2.3-35-8.1-25.4-12.6-39.2-39.6-37-72 .9-12.6 2.5-19.1 7.6-29.4 9.3-19.1 28.7-33 51.7-37.2 8.4-1.6 30.8-.4 39.2 2zm382.5.4c11.9 3.8 19.1 8.1 27.6 16.5 6.2 6.2 8.5 9.4 12.2 17.1 6.4 13.3 9.1 28.9 7.1 41.2l-.7 3.8H737.8l.7 4.6c2.5 17.2 10.3 25.5 25.2 27 11.6 1.2 24.3-5.3 27.5-14.2l1.2-3.4h22.8c18.4 0 22.8.3 22.8 1.3 0 2.7-4 13-7.2 18.5-4.2 7.4-14.7 17.7-22.8 22.5-10.9 6.3-20.5 8.9-35.8 9.4-11.3.5-14.7.2-22.7-1.7-27-6.2-44.6-24.1-51.5-52.5-1.9-7.7-2.2-10.8-1.7-22.5.6-15 2.6-23.9 7.9-34.3 8-15.9 21.6-27.2 39.7-33.2 8.5-2.8 14.6-3.4 28.6-3 10.5.3 14.6.8 21 2.9zM903 604v22h-45v-44h45v22z"/><path d="M376.2 518.1c-7.2 2.8-14.4 10.2-17.3 17.6-3.2 8.4-3.2 26.2.1 34.7 2.7 7 9 13.8 15.8 16.9 5.9 2.8 18.7 2.9 24.5.3 4.6-2 11-7.7 13.8-12.2 6.1-9.9 6.6-32.7 1-43.3-7-13-24.3-19.4-37.9-14zm380.4-3.1c-9.2 3.6-16.3 12.8-17.3 22.5l-.6 5.5H797v-3.6c0-10.2-6.1-19.7-15.5-24-6.5-3.1-17.6-3.2-24.9-.4zM277.2 699.9l-3.2.6 9.4 10.6c34 38.3 84 70 135.1 85.7 34.5 10.6 58.8 13.8 98.5 12.9 26.8-.6 42.6-2.6 66.4-8.7 41.3-10.5 80.7-30.1 114.6-57 10.4-8.2 41.8-38.8 43.9-42.9l1.2-2.1-231.3.1c-127.2.1-232.8.4-234.6.8z"/></svg>